{
  "asset": {
    "version": "2.0",
    "generator": "THREE.GLTFExporter r164"
  },
  "scenes": [
    {
      "name": "Scene",
      "nodes": [
        8
      ]
    }
  ],
  "scene": 0,
  "nodes": [
    {
      "matrix": [
        0.11313416808843613,
        0,
        0,
        0,
        0,
        0.2520388066768646,
        0,
        0,
        0,
        0,
        0.2520388066768646,
        0,
        0.00730586051940918,
        0.006939888000488281,
        2.1226699352264404,
        1
      ],
      "name": "4star-1",
      "extras": {
        "name": "4star-1"
      },
      "mesh": 0
    },
    {
      "matrix": [
        1,
        0,
        0,
        0,
        0,
        1,
        0,
        0,
        0,
        0,
        1,
        0,
        0,
        0,
        -1,
        1
      ]
    },
    {
      "matrix": [
        0.2903072591820461,
        -0.055083352449746034,
        0.9533404489831251,
        0,
        0.7696228731145973,
        0.6033661010119061,
        -0.19950026900638224,
        0,
        -0.5653075581576278,
        0.7931490392898328,
        0.21797270626551601,
        0,
        -3.3325133323669434,
        5.96712064743042,
        1.1322622299194336,
        1
      ],
      "name": "Light1",
      "extras": {
        "name": "Light1"
      },
      "children": [
        1
      ],
      "extensions": {
        "KHR_lights_punctual": {
          "light": 0
        }
      }
    },
    {
      "name": "5star",
      "extras": {
        "name": "5star"
      },
      "mesh": 1
    },
    {
      "matrix": [
        0.11313416808843613,
        0,
        0,
        0,
        0,
        0.2520388066768646,
        0,
        0,
        0,
        0,
        0.2520388066768646,
        0,
        0.00730586051940918,
        2.4352197647094727,
        -1.9598581790924072,
        1
      ],
      "name": "4star-2",
      "extras": {
        "name": "4star-2"
      },
      "mesh": 2
    },
    {
      "matrix": [
        0.5180268953875674,
        -0.0000014011793916246518,
        0.8553643440303494,
        0,
        0.2242674068788051,
        0.965016674086631,
        -0.13581955230816378,
        0,
        -0.8254406648889366,
        0.2621885210595045,
        0.49990490546916255,
        0,
        -11.350431442260742,
        5.785841941833496,
        7.229537487030029,
        1
      ],
      "name": "mycamera",
      "extras": {
        "name": "mycamera"
      },
      "camera": 0
    },
    {
      "matrix": [
        1,
        0,
        0,
        0,
        0,
        1,
        0,
        0,
        0,
        0,
        1,
        0,
        0,
        0,
        -1,
        1
      ]
    },
    {
      "matrix": [
        0.4688358838032153,
        -0.05508321896487505,
        -0.8793915626112649,
        0,
        -0.6852734712078721,
        0.6033659358881843,
        -0.40313818613522145,
        0,
        0.5538625717781255,
        0.7931492554380033,
        0.24560316560864648,
        0,
        3.2132256031036377,
        5.96712064743042,
        1.2251324653625488,
        1
      ],
      "name": "Light2",
      "extras": {
        "name": "Light2"
      },
      "children": [
        6
      ],
      "extensions": {
        "KHR_lights_punctual": {
          "light": 1
        }
      }
    },
    {
      "name": "star.glb",
      "children": [
        0,
        2,
        3,
        4,
        5,
        7
      ]
    }
  ],
  "bufferViews": [
    {
      "buffer": 0,
      "byteOffset": 0,
      "byteLength": 768,
      "target": 34962,
      "byteStride": 12
    },
    {
      "buffer": 0,
      "byteOffset": 768,
      "byteLength": 768,
      "target": 34962,
      "byteStride": 12
    },
    {
      "buffer": 0,
      "byteOffset": 1536,
      "byteLength": 512,
      "target": 34962,
      "byteStride": 8
    },
    {
      "buffer": 0,
      "byteOffset": 2048,
      "byteLength": 192,
      "target": 34963
    },
    {
      "buffer": 0,
      "byteOffset": 2240,
      "byteLength": 1200,
      "target": 34962,
      "byteStride": 12
    },
    {
      "buffer": 0,
      "byteOffset": 3440,
      "byteLength": 1200,
      "target": 34962,
      "byteStride": 12
    },
    {
      "buffer": 0,
      "byteOffset": 4640,
      "byteLength": 800,
      "target": 34962,
      "byteStride": 8
    },
    {
      "buffer": 0,
      "byteOffset": 5440,
      "byteLength": 240,
      "target": 34963
    },
    {
      "buffer": 0,
      "byteOffset": 5680,
      "byteLength": 768,
      "target": 34962,
      "byteStride": 12
    },
    {
      "buffer": 0,
      "byteOffset": 6448,
      "byteLength": 768,
      "target": 34962,
      "byteStride": 12
    },
    {
      "buffer": 0,
      "byteOffset": 7216,
      "byteLength": 512,
      "target": 34962,
      "byteStride": 8
    }
  ],
  "buffers": [
    {
      "byteLength": 7728,
      "uri": "data:application/octet-stream;base64,"
    }
  ],
  "accessors": [
    {
      "bufferView": 0,
      "componentType": 5126,
      "count": 64,
      "max": [
        1.2022955417633057,
        6.323155403137207,
        2.077204942703247
      ],
      "min": [
        -1.291590690612793,
        1.109344482421875,
        -2.025022029876709
      ],
      "type": "VEC3"
    },
    {
      "bufferView": 1,
      "componentType": 5126,
      "count": 64,
      "max": [
        0.94586181640625,
        0.9604946374893188,
        0.9772043228149414
      ],
      "min": [
        -0.9151913523674011,
        -0.9237412810325623,
        -0.96443772315979
      ],
      "type": "VEC3"
    },
    {
      "bufferView": 2,
      "componentType": 5126,
      "count": 64,
      "max": [
        0.875,
        1
      ],
      "min": [
        0.125,
        0
      ],
      "type": "VEC2"
    },
    {
      "bufferView": 3,
      "componentType": 5123,
      "count": 96,
      "max": [
        63
      ],
      "min": [
        0
      ],
      "type": "SCALAR"
    },
    {
      "bufferView": 4,
      "componentType": 5126,
      "count": 100,
      "max": [
        0.5312274694442749,
        3.6702568531036377,
        1.5365400314331055
      ],
      "min": [
        -0.5312274694442749,
        0.6233304738998413,
        -1.5365400314331055
      ],
      "type": "VEC3"
    },
    {
      "bufferView": 5,
      "componentType": 5126,
      "count": 100,
      "max": [
        0.868181049823761,
        0.9722856283187866,
        0.9778288006782532
      ],
      "min": [
        -0.868181049823761,
        -0.9246988296508789,
        -0.9778288006782532
      ],
      "type": "VEC3"
    },
    {
      "bufferView": 6,
      "componentType": 5126,
      "count": 100,
      "max": [
        0.875,
        1
      ],
      "min": [
        0.125,
        0
      ],
      "type": "VEC2"
    },
    {
      "bufferView": 7,
      "componentType": 5123,
      "count": 120,
      "max": [
        99
      ],
      "min": [
        0
      ],
      "type": "SCALAR"
    },
    {
      "bufferView": 8,
      "componentType": 5126,
      "count": 64,
      "max": [
        1.2022955417633057,
        6.323155403137207,
        2.077204942703247
      ],
      "min": [
        -1.291590690612793,
        1.109344482421875,
        -2.025022029876709
      ],
      "type": "VEC3"
    },
    {
      "bufferView": 9,
      "componentType": 5126,
      "count": 64,
      "max": [
        0.94586181640625,
        0.9604946374893188,
        0.9772043228149414
      ],
      "min": [
        -0.9151913523674011,
        -0.9237412810325623,
        -0.96443772315979
      ],
      "type": "VEC3"
    },
    {
      "bufferView": 10,
      "componentType": 5126,
      "count": 64,
      "max": [
        0.875,
        1
      ],
      "min": [
        0.125,
        0
      ],
      "type": "VEC2"
    }
  ],
  "materials": [
    {
      "pbrMetallicRoughness": {
        "baseColorFactor": [
          1,
          0.2252141386270523,
          0.33068349957466125,
          1
        ],
        "metallicFactor": 0,
        "roughnessFactor": 0.5
      },
      "doubleSided": true,
      "name": "Material.002"
    },
    {
      "pbrMetallicRoughness": {
        "baseColorFactor": [
          0.7999992966651917,
          0.47346237301826477,
          0.035342540591955185,
          1
        ],
        "metallicFactor": 0,
        "roughnessFactor": 0.5
      },
      "doubleSided": true,
      "name": "Material.004"
    },
    {
      "pbrMetallicRoughness": {
        "baseColorFactor": [
          0.14290064573287964,
          0.5653221607208252,
          0.7999992966651917,
          1
        ],
        "metallicFactor": 0,
        "roughnessFactor": 0.5
      },
      "doubleSided": true,
      "name": "Material.003"
    }
  ],
  "meshes": [
    {
      "primitives": [
        {
          "mode": 4,
          "attributes": {
            "POSITION": 0,
            "NORMAL": 1,
            "TEXCOORD_0": 2
          },
          "indices": 3,
          "material": 0
        }
      ]
    },
    {
      "primitives": [
        {
          "mode": 4,
          "attributes": {
            "POSITION": 4,
            "NORMAL": 5,
            "TEXCOORD_0": 6
          },
          "indices": 7,
          "material": 1
        }
      ]
    },
    {
      "primitives": [
        {
          "mode": 4,
          "attributes": {
            "POSITION": 8,
            "NORMAL": 9,
            "TEXCOORD_0": 10
          },
          "indices": 3,
          "material": 2
        }
      ]
    }
  ],
  "extensions": {
    "KHR_lights_punctual": {
      "lights": [
        {
          "name": "Light1",
          "color": [
            1,
            1,
            1
          ],
          "intensity": 5,
          "type": "directional"
        },
        {
          "name": "Light2",
          "color": [
            1,
            1,
            1
          ],
          "intensity": 5,
          "type": "directional"
        }
      ]
    }
  },
  "cameras": [
    {
      "type": "perspective",
      "perspective": {
        "aspectRatio": 1.4413518886679921,
        "yfov": 0.39959648408210363,
        "zfar": 1000,
        "znear": 0.10000000149011612
      },
      "name": "PerspectiveCamera"
    }
  ],
  "extensionsUsed": [
    "KHR_lights_punctual"
  ]
}